<svg width="960" height="1067" viewBox="0 0 960 1067" fill="none" xmlns="http://www.w3.org/2000/svg">
<g clip-path="url(#clip0_317_1157)">
<path d="M677.116 62.4319C670.324 58.8089 670.001 49.1918 676.535 45.1212L727.463 13.3924C733.997 9.32177 742.487 13.8506 742.745 21.5443L744.759 81.5139C745.018 89.2076 736.85 94.2958 730.058 90.6727L677.116 62.4319Z" fill="#8261F9"/>
<path d="M849.99 786.415C843.198 782.792 842.875 773.175 849.408 769.104L894.8 740.825C901.334 736.754 909.824 741.283 910.082 748.977L911.877 802.427C912.136 810.121 903.969 815.209 897.176 811.586L849.99 786.415Z" fill="#8261F9"/>
<path d="M-65.8652 582.85C-73.4964 583.862 -79.3614 576.233 -76.4223 569.118L-20.2472 433.137C-17.308 426.022 -7.76905 424.757 -3.07704 430.86L86.5989 547.5C91.2909 553.603 87.6169 562.496 79.9857 563.508L-65.8652 582.85Z" fill="#8261F9"/>
<circle cx="-28" cy="-43" r="247" fill="#8261F9"/>
<circle cx="788" cy="1233" r="247" fill="#8261F9"/>
<circle cx="1066" cy="173" r="247" fill="#8261F9"/>
<circle cx="-82" cy="1032" r="247" fill="#8261F9"/>
</g>
<defs>
<clipPath id="clip0_317_1157">
<rect width="960" height="1080" fill="white"/>
</clipPath>
</defs>
</svg>
