<svg width="15" height="15" viewBox="0 0 15 15" fill="none" xmlns="http://www.w3.org/2000/svg">
<g clip-path="url(#clip0_13_133)">
<path d="M2.5 6.25C2.5 3.48857 4.73858 1.25 7.5 1.25C10.2614 1.25 12.5 3.48857 12.5 6.25M12.5 10V10.1723C12.5 10.4989 12.3721 10.8126 12.1438 11.0462L9.86774 13.3739C9.63257 13.6144 9.31038 13.75 8.97399 13.75H8.23699" stroke="white"/>
<path d="M1.125 7.25C1.125 6.97386 1.34886 6.75 1.625 6.75H2.625V9.5H1.625C1.34886 9.5 1.125 9.27615 1.125 9V7.25ZM12.375 6.75H13.375C13.6511 6.75 13.875 6.97386 13.875 7.25V9C13.875 9.27615 13.6511 9.5 13.375 9.5H12.375V6.75ZM6.75 13.6949C6.75 13.4533 6.94588 13.2574 7.1875 13.2574H7.8125C8.05412 13.2574 8.25 13.4533 8.25 13.6949C8.25 13.9365 8.05412 14.1324 7.8125 14.1324H7.1875C6.94588 14.1324 6.75 13.9365 6.75 13.6949Z" stroke="white"/>
</g>
<defs>
<clipPath id="clip0_13_133">
<rect width="15" height="15" fill="white"/>
</clipPath>
</defs>
</svg>
