<svg width="16" height="17" viewBox="0 0 16 17" fill="none" xmlns="http://www.w3.org/2000/svg">
<mask id="mask0_13_90" style="mask-type:alpha" maskUnits="userSpaceOnUse" x="0" y="0" width="16" height="17">
<path fill-rule="evenodd" clip-rule="evenodd" d="M2 14V7.5H3V14C3 14.2761 3.22386 14.5 3.5 14.5H12.5C12.7761 14.5 13 14.2761 13 14V7.5H14V14C14 14.8284 13.3284 15.5 12.5 15.5H3.5C2.67157 15.5 2 14.8284 2 14Z" fill="black"/>
<path fill-rule="evenodd" clip-rule="evenodd" d="M13 3V6.5L11 4.5V3C11 2.72386 11.2239 2.5 11.5 2.5H12.5C12.7761 2.5 13 2.72386 13 3Z" fill="black"/>
<path fill-rule="evenodd" clip-rule="evenodd" d="M7.29289 2C7.68342 1.60948 8.31658 1.60948 8.70711 2L15.3536 8.64645C15.5488 8.84171 15.5488 9.15829 15.3536 9.35355C15.1583 9.54882 14.8417 9.54882 14.6464 9.35355L8 2.70711L1.35355 9.35355C1.15829 9.54882 0.841709 9.54882 0.646447 9.35355C0.451184 9.15829 0.451184 8.84171 0.646447 8.64645L7.29289 2Z" fill="black"/>
</mask>
<g mask="url(#mask0_13_90)">
<rect y="0.5" width="16" height="16" fill="white"/>
</g>
</svg>
