<svg width="16" height="16" viewBox="0 0 16 16" fill="none" xmlns="http://www.w3.org/2000/svg">
<path fill-rule="evenodd" clip-rule="evenodd" d="M10.6666 4.66667C10.6666 6.13943 9.47265 7.33333 7.99992 7.33333C6.52716 7.33333 5.33325 6.13943 5.33325 4.66667C5.33325 3.19391 6.52716 2 7.99992 2C9.47265 2 10.6666 3.19391 10.6666 4.66667ZM9.33325 4.66667C9.33325 5.40305 8.73632 6 7.99992 6C7.26352 6 6.66658 5.40305 6.66658 4.66667C6.66658 3.93029 7.26352 3.33333 7.99992 3.33333C8.73632 3.33333 9.33325 3.93029 9.33325 4.66667Z" fill="#102844"/>
<path fill-rule="evenodd" clip-rule="evenodd" d="M10.6667 10C10.6667 9.6318 10.3682 9.33333 10 9.33333H6C5.63181 9.33333 5.33333 9.6318 5.33333 10V14H4V10C4 8.8954 4.89543 8 6 8H10C11.1046 8 12 8.8954 12 10V14H10.6667V10Z" fill="#102844"/>
</svg>
