<svg width="50" height="50" viewBox="0 0 50 50" fill="none" xmlns="http://www.w3.org/2000/svg">
<rect width="50" height="50" rx="12" fill="#FFF6D8"/>
<path fill-rule="evenodd" clip-rule="evenodd" d="M20.6667 29.2572C18.0762 27.7587 16.3333 24.9579 16.3333 21.75C16.3333 16.9635 20.2135 13.0833 25 13.0833C29.7865 13.0833 33.6667 16.9635 33.6667 21.75C33.6667 24.9579 31.9238 27.7587 29.3333 29.2572V29.3332C29.3333 31.7265 27.3932 33.6666 25 33.6666C22.6068 33.6666 20.6667 31.7265 20.6667 29.3332V29.2572ZM31.5 21.75C31.5 23.6751 30.6631 25.4047 29.3333 26.5949L27.1667 26.5939V29.3332C27.1667 30.5299 26.1965 31.4999 25 31.4999C23.8033 31.4999 22.8333 30.5299 22.8333 29.3333V26.5939L20.6667 26.5949C19.3369 25.4047 18.5 23.6751 18.5 21.75C18.5 18.1602 21.4101 15.25 25 15.25C28.5898 15.25 31.5 18.1602 31.5 21.75ZM22.8333 34.75V34.7569C22.8333 35.9536 23.8033 36.9236 25 36.9236C26.1966 36.9236 27.1667 35.9536 27.1667 34.7569V34.75C26.5293 35.1187 25.7893 35.3297 25 35.3297C24.2107 35.3297 23.4707 35.1187 22.8333 34.75Z" fill="#FFC50C"/>
</svg>
