<svg width="50" height="50" viewBox="0 0 50 50" fill="none" xmlns="http://www.w3.org/2000/svg">
<rect width="50" height="50" rx="12" fill="#FFEFE0"/>
<path fill-rule="evenodd" clip-rule="evenodd" d="M15.2606 18.3244C15.2606 17.7261 15.7456 17.241 16.3439 17.241H33.6667C34.265 17.241 34.75 17.7261 34.75 18.3244V30.5923C34.75 31.7889 33.78 32.7589 32.5833 32.7589H17.4167C16.22 32.7589 15.25 31.7889 15.25 30.5923V18.6756C15.25 18.624 15.2536 18.5733 15.2606 18.5236V18.3244ZM17.4167 20.7334V30.5923H32.5833V20.7338L27.2983 26.0189C26.0291 27.2881 23.9713 27.2881 22.7021 26.0189L17.4167 20.7334ZM19.12 19.3727H30.8803L25.7662 24.4868C25.3432 24.9099 24.6572 24.9099 24.2342 24.4868L19.12 19.3727Z" fill="#FF7800"/>
</svg>
