<svg width="272" height="301" viewBox="0 0 272 301" fill="none" xmlns="http://www.w3.org/2000/svg">
<path fill-rule="evenodd" clip-rule="evenodd" d="M71.6577 119.772C81.6893 126.755 81.4167 126.721 96.5992 129.829C116.824 133.971 168.157 147.728 182.774 127.894C182.843 127.801 199.199 115.725 203.793 109.997C207.64 105.203 222.921 103.546 231.43 108.212C261.94 124.937 239.472 153.811 260.99 220.714C266.655 238.328 250.219 262.453 220.818 264.26C183.755 266.538 144.906 302.124 119.388 300.973C98.1359 300.015 73.4313 296.669 63.9743 275.708C51.0098 246.972 42.32 229.328 13.018 210.551C-22.8502 187.568 37.3179 95.864 71.6598 119.772H71.6577Z" fill="#F0EDFE"/>
<path d="M166.522 68.2603H92.3914C83.9693 68.2603 77.1418 75.0745 77.1418 83.4803V221.577C77.1418 229.983 83.9693 236.797 92.3914 236.797H166.522C174.944 236.797 181.771 229.983 181.771 221.577V83.4803C181.771 75.0745 174.944 68.2603 166.522 68.2603Z" fill="white" stroke="#FFBF5D" stroke-width="2" stroke-miterlimit="2.61313"/>
<path d="M164.753 91.6631H94.1609C91.007 91.6631 88.4502 94.2312 88.4502 97.399V213.047C88.4502 216.215 91.007 218.783 94.1609 218.783H164.753C167.907 218.783 170.463 216.215 170.463 213.047V97.399C170.463 94.2312 167.907 91.6631 164.753 91.6631Z" fill="#FFBF5D" fill-opacity="0.2" stroke="#FFBF5D" stroke-width="2" stroke-miterlimit="2.61313"/>
<path d="M129 171H119C113 171 109 168 109 161V147C109 140 113 137 119 137H139C145 137 149 140 149 147V153" stroke="#FFBF5D" stroke-width="2" stroke-miterlimit="10" stroke-linecap="round" stroke-linejoin="round"/>
<path d="M139 148L132.74 153C130.68 154.64 127.3 154.64 125.24 153L119 148" stroke="#FFBF5D" stroke-width="2" stroke-miterlimit="10" stroke-linecap="round" stroke-linejoin="round"/>
<path d="M141.4 172.8C144.935 172.8 147.8 169.935 147.8 166.4C147.8 162.865 144.935 160 141.4 160C137.865 160 135 162.865 135 166.4C135 169.935 137.865 172.8 141.4 172.8Z" stroke="#FFBF5D" stroke-width="2" stroke-linecap="round" stroke-linejoin="round"/>
<path d="M149 174L148 173" stroke="#FFBF5D" stroke-width="2" stroke-linecap="round" stroke-linejoin="round"/>
<path d="M140.708 77.7234H118.205C117.133 77.7234 116.264 78.5964 116.264 79.6733V79.6754C116.264 80.7523 117.133 81.6253 118.205 81.6253H140.708C141.78 81.6253 142.65 80.7523 142.65 79.6754V79.6733C142.65 78.5964 141.78 77.7234 140.708 77.7234Z" fill="#FFBF5D"/>
<path d="M194.846 24.7925C200.308 24.7925 204.736 20.3541 204.736 14.879C204.736 9.40389 200.308 4.96545 194.846 4.96545C189.384 4.96545 184.956 9.40389 184.956 14.879C184.956 20.3541 189.384 24.7925 194.846 24.7925Z" stroke="#7FB4C9" stroke-width="1.5" stroke-miterlimit="2.61313" stroke-linecap="round" stroke-linejoin="round"/>
<path fill-rule="evenodd" clip-rule="evenodd" d="M18.8022 18.7154L1 23.8011L8.05269 7.93945L18.8022 18.7154Z" stroke="#469352" stroke-width="1.5" stroke-miterlimit="2.61313" stroke-linecap="round" stroke-linejoin="round"/>
<path fill-rule="evenodd" clip-rule="evenodd" d="M42.2184 51.559L41.0638 57.2849L45.5053 61.3872L39.3567 60.3125L34.9461 64.4466L36.1007 58.7235L31.6592 54.6184L37.811 55.693L42.2184 51.559Z" fill="#2097A3"/>
<path fill-rule="evenodd" clip-rule="evenodd" d="M255.845 4.96545L254.69 11.1287L259.132 15.5497L252.98 14.3923L248.573 18.8444L249.727 12.6781L245.286 8.26019L251.437 9.41754L255.845 4.96545Z" fill="#F3B57D"/>
<path d="M70.7255 5.95677C72.091 5.95677 73.198 4.84716 73.198 3.47838C73.198 2.10961 72.091 1 70.7255 1C69.3599 1 68.2529 2.10961 68.2529 3.47838C68.2529 4.84716 69.3599 5.95677 70.7255 5.95677Z" stroke="#D89BB0" stroke-width="1.5" stroke-miterlimit="2.61313" stroke-linecap="round" stroke-linejoin="round"/>
<path d="M118.692 17.8502C125.37 18.0821 127.328 4.11253 136.495 6.16221" stroke="#B545B4" stroke-width="1.5" stroke-miterlimit="2.61313" stroke-linecap="round" stroke-linejoin="round"/>
<path d="M237.363 76.3428C237.801 69.4261 224.495 66.947 226.753 57.5071" stroke="#5F589A" stroke-width="1.5" stroke-miterlimit="2.61313" stroke-linecap="round" stroke-linejoin="round"/>
<path fill-rule="evenodd" clip-rule="evenodd" d="M271 81.2996L263.088 76.7386L269.649 69.4033L271 81.2996Z" stroke="#F9B49C" stroke-width="1.5" stroke-miterlimit="2.61313" stroke-linecap="round" stroke-linejoin="round"/>
</svg>
