<svg width="17" height="18" viewBox="0 0 17 18" fill="none" xmlns="http://www.w3.org/2000/svg">
<path d="M11.1247 9C11.1247 10.4728 9.94956 11.6667 8.5 11.6667C7.05044 11.6667 5.87533 10.4728 5.87533 9C5.87533 7.52724 7.05044 6.33333 8.5 6.33333C9.94956 6.33333 11.1247 7.52724 11.1247 9Z" stroke="white" stroke-linejoin="bevel"/>
<path d="M7.13821 1L6.73136 3.53239C5.97652 3.78197 5.29121 4.18696 4.7124 4.70999L2.36178 3.80177L1 6.19819L2.93585 7.80633C2.85548 8.19142 2.81321 8.59071 2.81321 8.99999C2.81321 9.40926 2.85548 9.80855 2.93585 10.1936L1 11.8018L2.36178 14.1982L4.71577 13.2931C5.29387 13.8146 5.97799 14.2185 6.73136 14.4676L7.13821 17H9.86179L10.2686 14.4676C11.0235 14.218 11.7088 13.813 12.2876 13.29L14.6382 14.1982L16 11.8018L14.0641 10.1937C14.1445 9.80858 14.1868 9.40929 14.1868 9.00001C14.1868 8.59074 14.1445 8.19145 14.0642 7.80637L16 6.19823L14.6382 3.80181L12.2842 4.70695C11.7061 4.18539 11.022 3.78148 10.2686 3.53239L9.86179 1H7.13821Z" stroke="white" stroke-linejoin="bevel"/>
</svg>
