<svg width="607" height="320" viewBox="0 0 607 320" fill="none" xmlns="http://www.w3.org/2000/svg">
<ellipse rx="50.2345" ry="50.1961" transform="matrix(-1 0 0 1 525.369 87.8431)" fill="url(#paint0_linear_317_1086)"/>
<path d="M537.606 94.6711C577.56 133.591 547.069 219.608 607 219.608V78.8926C607 -83.66 680.259 -3.8147e-06 529.195 7.62939e-06H380.945C397.768 63.1141 496.601 55.7508 537.606 94.6711Z" fill="#7754F8"/>
<path fill-rule="evenodd" clip-rule="evenodd" d="M565.138 8.31179C554.618 20.1424 532.498 33.3814 487.262 27.1895C459.298 24.2788 435.549 34.331 419.267 43.2745C401.219 33.6366 387.04 20.5565 381.561 0H529.811C542.281 0 554.362 2.91852 565.138 8.31179Z" fill="#8261F9"/>
<rect y="2.12051" width="16.5487" height="16.5487" rx="3.5" transform="matrix(-0.707377 0.706836 0.707377 0.706836 509.328 244.622)" stroke="#8CE4FF" stroke-width="3"/>
<path d="M204.47 67.6673C202.6 69.6085 203.534 72.846 206.151 73.493L228.039 78.9053C230.654 79.552 232.989 77.1258 232.242 74.5375L225.996 52.8859C225.249 50.2977 221.981 49.4878 220.112 51.4279L204.47 67.6673Z" stroke="#F88890" stroke-width="3"/>
<defs>
<linearGradient id="paint0_linear_317_1086" x1="50.2345" y1="0" x2="50.2345" y2="100.392" gradientUnits="userSpaceOnUse">
<stop stop-color="#FFAE35"/>
<stop offset="1" stop-color="#FFCC7E"/>
</linearGradient>
</defs>
</svg>
