<svg width="16" height="16" viewBox="0 0 16 16" fill="none" xmlns="http://www.w3.org/2000/svg">
<path fill-rule="evenodd" clip-rule="evenodd" d="M0.666687 4C0.666687 2.89543 1.56212 2 2.66669 2H13.3334C14.438 2 15.3334 2.89543 15.3334 4V12C15.3334 13.1046 14.438 14 13.3334 14H2.66669C1.56212 14 0.666687 13.1046 0.666687 12V4ZM2.66669 3.33333H13.3334C13.7016 3.33333 14 3.63181 14 4V12C14 12.3682 13.7016 12.6667 13.3334 12.6667H2.66669C2.2985 12.6667 2.00002 12.3682 2.00002 12V4C2.00002 3.63181 2.2985 3.33333 2.66669 3.33333ZM4.00002 4.66667C3.63183 4.66667 3.33335 4.96515 3.33335 5.33333C3.33335 5.70152 3.63183 6 4.00002 6C4.36821 6 4.66669 5.70152 4.66669 5.33333C4.66669 4.96515 4.36821 4.66667 4.00002 4.66667ZM11.3334 5.33333C11.3334 4.96515 11.6318 4.66667 12 4.66667C12.3682 4.66667 12.6667 4.96515 12.6667 5.33333C12.6667 5.70152 12.3682 6 12 6C11.6318 6 11.3334 5.70152 11.3334 5.33333ZM3.33335 8C3.33335 7.6318 3.63183 7.33333 4.00002 7.33333C4.36821 7.33333 4.66669 7.6318 4.66669 8C4.66669 8.3682 4.36821 8.66667 4.00002 8.66667C3.63183 8.66667 3.33335 8.3682 3.33335 8ZM11.3334 8C11.3334 7.6318 11.6318 7.33333 12 7.33333C12.3682 7.33333 12.6667 7.6318 12.6667 8C12.6667 8.3682 12.3682 8.66667 12 8.66667C11.6318 8.66667 11.3334 8.3682 11.3334 8ZM3.33335 10.6667C3.33335 10.2985 3.63183 10 4.00002 10C4.36821 10 4.66669 10.2985 4.66669 10.6667C4.66669 11.0349 4.36821 11.3333 4.00002 11.3333C3.63183 11.3333 3.33335 11.0349 3.33335 10.6667ZM11.3334 10.6667C11.3334 10.2985 11.6318 10 12 10C12.3682 10 12.6667 10.2985 12.6667 10.6667C12.6667 11.0349 12.3682 11.3333 12 11.3333C11.6318 11.3333 11.3334 11.0349 11.3334 10.6667Z" fill="#767278"/>
</svg>
