<svg width="103" height="35" viewBox="0 0 103 35" fill="none" xmlns="http://www.w3.org/2000/svg">
<path d="M27.1 5.2C27.1 6.4 26.9667 7.51667 26.7 8.55H17.6V34C16.4333 34.2333 15.1833 34.35 13.85 34.35C12.55 34.35 11.3167 34.2333 10.15 34V8.55H1C0.766667 7.51667 0.65 6.41667 0.65 5.25C0.65 4.05 0.766667 2.93333 1 1.9H26.7C26.9667 2.86667 27.1 3.96666 27.1 5.2ZM34.1855 34.3C32.9522 34.3 31.6855 34.2 30.3855 34V1.15C31.3189 0.949998 32.5355 0.849998 34.0355 0.849998C35.5689 0.849998 36.8522 0.949998 37.8855 1.15V34C36.7189 34.2 35.4855 34.3 34.1855 34.3ZM62.4262 10C63.9262 10 65.1762 10.1 66.1762 10.3V32.1C62.9428 33.9333 59.0095 34.85 54.3762 34.85C46.7762 34.85 42.9762 31.6333 42.9762 25.2V10.3C43.9762 10.1 45.2262 10 46.7262 10C48.2262 10 49.4595 10.1 50.4262 10.3V23.55C50.4262 25.25 50.7428 26.4833 51.3762 27.25C52.0428 27.9833 53.2428 28.35 54.9762 28.35C56.4428 28.35 57.6928 28.1 58.7262 27.6V10.3C59.7262 10.1 60.9595 10 62.4262 10ZM94.0371 34.85C90.0038 34.85 86.8204 33.7333 84.4871 31.5C82.1538 29.2667 80.9871 26.1667 80.9871 22.2C80.9871 18.3667 82.1871 15.2833 84.5871 12.95C87.0204 10.6167 90.1038 9.45 93.8371 9.45C95.5371 9.45 97.1371 9.71667 98.6371 10.25C100.17 10.7833 101.32 11.4 102.087 12.1C101.854 13.1 101.387 14.0833 100.687 15.05C99.9871 16.0167 99.1704 16.7833 98.2371 17.35C97.0038 16.25 95.6038 15.7 94.0371 15.7C92.2704 15.7 90.9038 16.3 89.9371 17.5C88.9704 18.6667 88.4871 20.2 88.4871 22.1C88.4871 24 88.9538 25.5667 89.8871 26.8C90.8538 28 92.2538 28.6 94.0871 28.6C95.8538 28.6 97.3871 28.0167 98.6871 26.85C100.587 27.7833 101.854 29.4167 102.487 31.75C100.22 33.8167 97.4038 34.85 94.0371 34.85Z" fill="black"/>
<path d="M74.126 34.798C73.062 34.798 72.138 34.406 71.354 33.622C70.57 32.81 70.178 31.872 70.178 30.808C70.178 29.716 70.57 28.778 71.354 27.994C72.138 27.21 73.062 26.818 74.126 26.818C75.218 26.818 76.156 27.21 76.94 27.994C77.724 28.778 78.116 29.716 78.116 30.808C78.116 31.872 77.724 32.81 76.94 33.622C76.156 34.406 75.218 34.798 74.126 34.798Z" fill="#FF9800"/>
</svg>
